<svg display='none' 
    xmlns="http://www.w3.org/2000/svg">
    <symbol width="156" height="156" id="youtube-icon">
    <path fill-rule="evenodd" clip-rule="evenodd" d="M48.5371 18.6818C66.9133 15.6674 89.0865 15.6674 107.463 18.6818C124.159 21.4205 137.096 34.9884 139.571 49.6031C142.567 67.295 142.567 88.7048 139.571 106.397C137.096 121.011 124.159 134.579 107.463 137.318C89.0865 140.332 66.9133 140.332 48.5371 137.318C31.8416 134.579 18.9043 121.011 16.429 106.397C13.4326 88.7048 13.4329 67.295 16.4291 49.6032C18.9041 34.9884 31.8416 21.4205 48.5371 18.6818ZM109.452 2.42307C89.7566 -0.807689 66.2439 -0.807689 46.5479 2.42307C25.1717 5.92953 6.38295 23.5873 2.51224 46.4433C-0.83724 66.2219 -0.837609 89.7779 2.51231 109.556C6.3833 132.413 25.1716 150.07 46.5479 153.577C66.2439 156.808 89.7566 156.808 109.452 153.577C130.829 150.07 149.617 132.413 153.488 109.556C156.837 89.7779 156.837 66.2219 153.488 46.4434C149.617 23.5872 130.829 5.92953 109.452 2.42307ZM67.7514 38.3263C65.5752 36.6466 62.7779 36.4901 60.4722 37.9189C58.1666 39.3476 56.7272 42.1298 56.7272 45.1578V110.842C56.7272 113.87 58.1666 116.653 60.4722 118.081C62.7779 119.51 65.5752 119.353 67.7514 117.674L110.297 84.8318C112.27 83.3088 113.454 80.7455 113.454 77.9999C113.454 75.2543 112.27 72.691 110.297 71.1679L67.7514 38.3263ZM93.58 77.9999L70.909 95.5006V60.4993L93.58 77.9999Z"/>
    </symbol>
</svg>
 
    